HIERARCHY
ROOT Hips
{
	OFFSET	0.00	0.00	0.00
	CHANNELS 6 Xposition Yposition Zposition Zrotation Xrotation Yrotation
	JOINT LeftUpLeg
	{
		OFFSET	 0.126116	-0.014019	-0.065224
		CHANNELS 3 Zrotation Xrotation Yrotation
		JOINT LeftLeg
		{
			OFFSET	 0.000000	 0.000000	 0.569914
			CHANNELS 3 Zrotation Xrotation Yrotation
			JOINT LeftFoot
			{
				OFFSET	 0.000000	 0.000000	 0.544423
				CHANNELS 3 Zrotation Xrotation Yrotation
				JOINT LeftToeBase
				{
					OFFSET	 0.000000	 0.000000	 0.207117
					CHANNELS 3 Zrotation Xrotation Yrotation
					End Site
					{
						OFFSET	 0.000000	 0.000000	 0.207117
					}
				}
			}
		}
	}
	JOINT RightUpLeg
	{
		OFFSET	-0.124023	-0.008373	-0.065224
		CHANNELS 3 Zrotation Xrotation Yrotation
		JOINT RightLeg
		{
			OFFSET	 0.000000	 0.000000	 0.570047
			CHANNELS 3 Zrotation Xrotation Yrotation
			JOINT RightFoot
			{
				OFFSET	 0.000000	 0.000000	 0.544354
				CHANNELS 3 Zrotation Xrotation Yrotation
				JOINT RightToeBase
				{
					OFFSET	 0.000000	 0.000000	 0.207540
					CHANNELS 3 Zrotation Xrotation Yrotation
					End Site
					{
						OFFSET	 0.000000	 0.000000	 0.207540
					}
				}
			}
		}
	}
	JOINT Spine
	{
		OFFSET	 0.000184	-0.007763	 0.117403
		CHANNELS 3 Zrotation Xrotation Yrotation
		JOINT Spine1
		{
			OFFSET	 0.000000	 0.000000	 0.137269
			CHANNELS 3 Zrotation Xrotation Yrotation
			JOINT Spine2
			{
				OFFSET	 0.000000	 0.000000	 0.156879
				CHANNELS 3 Zrotation Xrotation Yrotation
				JOINT LeftShoulder
				{
					OFFSET	 0.080501	-0.002496	 0.160144
					CHANNELS 3 Zrotation Xrotation Yrotation
					JOINT LeftArm
					{
						OFFSET	 0.000000	 0.000000	 0.164363
						CHANNELS 3 Zrotation Xrotation Yrotation
						JOINT LeftForeArm
						{
							OFFSET	 0.000000	 0.000000	 0.364576
							CHANNELS 3 Zrotation Xrotation Yrotation
							JOINT LeftHand
							{
								OFFSET	 0.000000	 0.000000	 0.360812
								CHANNELS 3 Zrotation Xrotation Yrotation
								JOINT LeftHandIndex1
								{
									OFFSET	 0.000000	 0.000000	 0.086006
									CHANNELS 3 Zrotation Xrotation Yrotation
									JOINT LeftHandIndex2
									{
										OFFSET	 0.000000	 0.000000	 0.047236
										CHANNELS 3 Zrotation Xrotation Yrotation
										JOINT LeftHandIndex3
										{
											OFFSET	-0.004284	-0.000551	 0.038166
											CHANNELS 3 Zrotation Xrotation Yrotation
											End Site
											{
												OFFSET	-0.004284	-0.000551	 0.038166
											}
										}
									}
								}
							}
						}
					}
				}
				JOINT Neck
				{
					OFFSET	 0.000000	 0.000000	 0.176489
					CHANNELS 3 Zrotation Xrotation Yrotation
					JOINT Head
					{
						OFFSET	 0.000000	-0.001747	 0.077940
						CHANNELS 3 Zrotation Xrotation Yrotation
						End Site
						{
							OFFSET	 0.000000	-0.001747	 0.077940
						}
					}
				}
				JOINT RightShoulder
				{
					OFFSET	-0.080363	 0.000306	 0.159706
					CHANNELS 3 Zrotation Xrotation Yrotation
					JOINT RightArm
					{
						OFFSET	 0.000000	 0.000000	 0.164196
						CHANNELS 3 Zrotation Xrotation Yrotation
						JOINT RightForeArm
						{
							OFFSET	 0.000000	 0.000000	 0.365611
							CHANNELS 3 Zrotation Xrotation Yrotation
							JOINT RightHand
							{
								OFFSET	 0.000000	 0.000000	 0.360648
								CHANNELS 3 Zrotation Xrotation Yrotation
								JOINT RightHandIndex1
								{
									OFFSET	 0.000000	 0.000000	 0.069977
									CHANNELS 3 Zrotation Xrotation Yrotation
									JOINT RightHandIndex2
									{
										OFFSET	 0.000000	 0.000000	 0.052305
										CHANNELS 3 Zrotation Xrotation Yrotation
										JOINT RightHandIndex3
										{
											OFFSET	 0.009002	-0.000782	 0.042196
											CHANNELS 3 Zrotation Xrotation Yrotation
											End Site
											{
												OFFSET	 0.009002	-0.000782	 0.042196
											}
										}
									}
								}
							}
						}
					}
				}
			}
		}
	}
}
MOTION
Frames:    13
Frame Time: 0.03333334
 0.000294	 0.019714	 1.271185	-0.002997	 0.003664	 0.173860	-11.397120	-1.829694	 179.563800	 1.464455	-12.643340	-0.739412	-4.338933	 71.857990	-2.065043	-2.385833	 28.452760	 0.000004	 11.239900	-1.931361	-179.797500	-1.456324	-12.244600	 0.702204	 4.167387	 71.476720	 2.048572	 2.384658	 28.388730	 0.000004	-4.280902	 2.675724	 0.294965	-2.159477	 3.828243	-0.799378	 6.537094	-4.706672	 1.420873	-91.776170	 78.527470	 180.000000	 69.030640	 44.248990	-53.088440	-7.675449	 4.721122	-11.890880	-30.224440	-11.042210	-4.431971	-2.635965	 4.993658	 6.788941	-5.165319	 0.784187	 3.516649	-5.225038	 0.466231	 0.424329	-0.000002	-3.783157	-0.089647	 6.355570	 4.533066	-0.251818	 89.782140	 78.203870	 180.000000	-64.793240	 42.231750	 56.208470	 7.728739	 4.634962	 10.610950	 30.467240	-11.784870	 9.089356	 6.112037	 4.509576	-0.364401	 4.968462	 1.518543	-9.347576	 5.168945	 0.703820	 2.021906
 0.000295	 0.019712	 1.271249	-0.002713	 0.004187	 0.174488	-11.433820	-1.825414	 179.565500	 1.464563	-12.634800	-0.738896	-4.336533	 71.847690	-2.067305	-2.385833	 28.452760	 0.000004	 11.276490	-1.926170	-179.800200	-1.456466	-12.233450	 0.701543	 4.165625	 71.465040	 2.050663	 2.384658	 28.388730	 0.000004	-4.253794	 2.617239	 0.285529	-2.148953	 4.030779	-0.780535	 6.504028	-4.969478	 1.430992	-91.776150	 78.527470	 180.000000	 69.105330	 44.290110	-53.034920	-7.670915	 4.730084	-11.913960	-30.234540	-11.169520	-4.433897	-2.635965	 4.993658	 6.788941	-5.165319	 0.784187	 3.516649	-5.225038	 0.466231	 0.424329	-0.000002	-3.783157	-0.089647	 6.312760	 4.414816	-0.243588	 89.782070	 78.203900	-180.000000	-64.741360	 42.169280	 56.260400	 7.497495	 4.608082	 10.632570	 30.478850	-11.995590	 9.058025	 6.112037	 4.509576	-0.364401	 4.968462	 1.518543	-9.347576	 5.168945	 0.703820	 2.021906
 0.000294	 0.019710	 1.271337	-0.002313	 0.004871	 0.174198	-11.480270	-1.818810	 179.568500	 1.464752	-12.621020	-0.738064	-4.332947	 71.833110	-2.070620	-2.385833	 28.452760	 0.000004	 11.323040	-1.920164	-179.802700	-1.456622	-12.220880	 0.700801	 4.163630	 71.451080	 2.053186	 2.384658	 28.388730	 0.000004	-4.197418	 2.543586	 0.272886	-2.124522	 4.285762	-0.752748	 6.428288	-5.302742	 1.435850	-91.776180	 78.527430	 180.000000	 69.198700	 44.345540	-52.970420	-7.665087	 4.737680	-11.933510	-30.248800	-11.350330	-4.436693	-2.635965	 4.993658	 6.788941	-5.165319	 0.784187	 3.516649	-5.225038	 0.466231	 0.424329	-0.000002	-3.783157	-0.089647	 6.225689	 4.269706	-0.232319	 89.782100	 78.203870	 180.000000	-64.660140	 42.072970	 56.435840	 7.291533	 4.515633	 10.526560	 30.418650	-12.281620	 8.998014	 6.112037	 4.509576	-0.364401	 4.968462	 1.518543	-9.347576	 5.168945	 0.703820	 2.021906
 0.000287	 0.019707	 1.271467	-0.001745	 0.005787	 0.171857	-11.542950	-1.807884	 179.574100	 1.465060	-12.597570	-0.736647	-4.327322	 71.810940	-2.075722	-2.385833	 28.452760	 0.000004	 11.386280	-1.913274	-179.804400	-1.456793	-12.207210	 0.699993	 4.161409	 71.433810	 2.056321	 2.384658	 28.388730	 0.000004	-4.082284	 2.445513	 0.254954	-2.071671	 4.625311	-0.708953	 6.265593	-5.750613	 1.427424	-91.776090	 78.527450	 179.999900	 69.321080	 44.425710	-52.889200	-7.656951	 4.740732	-11.941320	-30.270890	-11.628740	-4.441090	-2.635965	 4.993658	 6.788941	-5.165319	 0.784187	 3.516649	-5.225038	 0.466231	 0.424329	-0.000002	-3.783157	-0.089647	 6.050062	 4.083086	-0.215878	 89.782120	 78.203850	 180.000000	-64.632900	 41.692800	 56.975620	 6.849743	 4.255158	 10.145710	 30.528010	-12.907760	 8.813700	 6.112037	 4.509576	-0.364401	 4.968462	 1.518543	-9.347576	 5.168945	 0.703820	 2.021906
 0.000281	 0.019705	 1.271550	-0.001401	 0.006312	 0.169333	-11.579690	-1.800224	 179.578300	 1.465282	-12.580790	-0.735633	-4.323482	 71.796420	-2.079172	-2.385833	 28.452760	 0.000004	 11.423540	-1.909835	-179.804500	-1.456877	-12.200870	 0.699619	 4.160295	 71.424510	 2.058035	 2.384658	 28.388730	 0.000004	-3.993968	 2.389048	 0.244241	-2.029955	 4.820827	-0.680155	 6.137682	-6.010652	 1.413975	-91.776180	 78.527450	 180.000000	 69.390040	 44.475020	-52.844540	-7.652183	 4.738453	-11.935380	-30.285310	-11.810350	-4.444017	-2.635965	 4.993658	 6.788941	-5.165319	 0.784187	 3.516649	-5.225038	 0.466231	 0.424329	-0.000002	-3.783157	-0.089647	 5.916155	 3.979042	-0.205709	 89.782150	 78.203890	 180.000000	-64.558170	 41.450670	 57.384780	 6.597812	 4.056546	 9.801266	 30.593440	-13.295040	 8.705005	 6.112037	 4.509576	-0.364401	 4.968462	 1.518543	-9.347576	 5.168945	 0.703820	 2.021906
 0.000269	 0.019704	 1.271664	-0.000947	 0.006973	 0.164829	-11.614880	-1.789517	 179.583800	 1.465599	-12.556550	-0.734169	-4.301442	 71.776450	-2.088362	-2.385833	 28.452760	 0.000004	 11.483640	-1.906342	-179.804400	-1.456944	-12.195470	 0.699298	 4.174424	 71.413700	 2.056056	 2.384658	 28.388730	 0.000004	-3.856549	 2.317347	 0.230264	-1.963905	 5.069172	-0.639739	 5.935744	-6.343272	 1.386628	-91.776150	 78.527450	 180.000000	 69.475000	 44.541160	-52.788840	-7.646080	 4.731049	-11.916340	-30.305600	-12.066340	-4.448217	-2.635965	 4.993658	 6.788941	-5.165319	 0.784187	 3.516649	-5.225038	 0.466231	 0.424329	-0.000002	-3.783157	-0.089647	 5.708597	 3.850455	-0.192061	 89.782160	 78.203870	 179.999900	-64.374420	 41.098180	 57.984370	 6.190666	 3.762259	 9.288176	 30.690300	-13.842870	 8.552430	 6.112037	 4.509576	-0.364401	 4.968462	 1.518543	-9.347576	 5.168945	 0.703820	 2.021906
 0.000255	 0.019703	 1.271784	-0.000504	 0.007570	 0.158846	-11.663280	-1.777403	 179.591600	 1.465951	-12.529400	-0.732529	-4.296856	 71.754790	-2.093117	-2.385833	 28.452760	 0.000004	 11.531540	-1.904325	-179.802200	-1.456967	-12.193560	 0.699189	 4.172744	 71.404820	 2.057838	 2.384658	 28.388730	 0.000004	-3.694084	 2.248056	 0.216536	-1.884587	 5.309395	-0.596380	 5.693958	-6.667494	 1.347812	-91.776190	 78.527430	-180.000000	 69.553370	 44.608700	-52.735410	-7.639997	 4.718355	-11.883810	-30.327780	-12.344300	-4.452911	-2.635965	 4.993658	 6.788941	-5.165319	 0.784187	 3.516649	-5.225038	 0.466231	 0.424329	-0.000002	-3.783157	-0.089647	 5.463948	 3.729879	-0.178058	 89.782100	 78.203900	 180.000000	-64.049100	 40.690540	 58.571720	 5.739308	 3.495943	 8.839684	 30.792890	-14.425640	 8.393839	 6.112037	 4.509576	-0.364401	 4.968462	 1.518543	-9.347576	 5.168945	 0.703820	 2.021906
 0.000236	 0.019703	 1.271908	-0.000082	 0.008103	 0.151359	-11.711830	-1.764047	 179.600600	 1.466347	-12.499190	-0.730707	-4.291938	 71.731590	-2.098211	-2.385833	 28.452760	 0.000004	 11.579680	-1.903422	-179.798800	-1.456950	-12.194640	 0.699249	 4.171274	 71.397460	 2.059378	 2.384658	 28.388730	 0.000004	-3.506322	 2.181342	 0.203204	-1.791718	 5.540890	-0.550387	 5.411689	-6.982247	 1.297038	-91.776210	 78.527450	-180.000000	 69.623700	 44.677050	-52.682770	-7.634120	 4.700379	-11.837690	-30.351790	-12.645150	-4.458097	-2.635965	 4.993658	 6.788941	-5.165319	 0.784187	 3.516649	-5.225038	 0.466231	 0.424329	-0.000002	-3.783157	-0.089647	 5.181965	 3.617261	-0.163756	 89.782100	 78.203890	 180.000000	-63.516280	 40.198090	 58.987640	 5.215440	 3.356194	 8.722436	 30.844250	-15.048420	 8.206688	 6.112037	 4.509576	-0.364401	 4.968462	 1.518543	-9.347576	 5.168945	 0.703820	 2.021906
 0.000212	 0.019704	 1.272047	 0.000353	 0.008590	 0.141064	-11.766460	-1.747881	 179.612400	 1.466836	-12.462350	-0.728481	-4.286133	 71.704030	-2.104205	-2.385833	 28.452760	 0.000004	 11.634110	-1.904417	-179.793600	-1.456873	-12.200990	 0.699625	 4.170362	 71.391730	 2.060400	 2.384658	 28.388730	 0.000004	-3.265983	 2.110217	 0.189038	-1.671389	 5.788158	-0.495861	 5.046988	-7.320976	 1.225267	-91.776220	 78.527450	-180.000000	 69.690190	 44.753330	-52.621690	-7.627520	 4.674559	-11.771410	-30.380950	-13.009730	-4.464581	-2.635965	 4.993658	 6.788941	-5.165319	 0.784187	 3.516649	-5.225038	 0.466231	 0.424329	-0.000002	-3.783157	-0.089647	 4.821682	 3.500753	-0.147447	 89.782130	 78.203890	 180.000000	-62.576130	 39.488950	 58.987780	 4.400277	 3.484740	 9.445079	 30.716100	-15.826640	 7.898070	 6.112037	 4.509576	-0.364401	 4.968462	 1.518543	-9.347576	 5.168945	 0.703820	 2.021906
 0.000188	 0.019707	 1.272154	 0.000665	 0.008881	 0.131527	-11.810040	-1.734210	 179.623000	 1.467240	-12.431010	-0.726591	-4.281360	 71.681040	-2.109109	-2.385833	 28.452760	 0.000004	 11.677650	-1.906617	-179.788400	-1.456764	-12.209720	 0.700142	 4.170047	 71.389000	 2.060766	 2.384658	 28.388730	 0.000004	-3.053042	 2.056982	 0.178452	-1.563680	 5.973675	-0.450747	 4.721423	-7.576847	 1.156915	-91.776060	 78.527430	 179.999900	 69.730710	 44.812360	-52.568840	-7.622402	 4.649583	-11.707350	-30.405840	-13.319640	-4.470234	-2.635965	 4.993658	 6.788941	-5.165319	 0.784187	 3.516649	-5.225038	 0.466231	 0.424329	-0.000002	-3.783157	-0.089647	 4.503130	 3.416013	-0.134362	 89.782120	 78.203870	 180.000000	-61.491560	 38.790500	 58.549630	 3.697766	 3.853788	 10.823750	 30.611400	-16.470790	 7.648237	 6.112037	 4.509576	-0.364401	 4.968462	 1.518543	-9.347576	 5.168945	 0.703820	 2.021906
 0.000159	 0.019714	 1.272286	 0.000961	 0.009085	 0.119222	-11.859760	-1.718005	 179.636300	 1.467722	-12.393710	-0.724342	-4.275889	 71.654080	-2.114758	-2.385833	 28.452760	 0.000004	 11.727510	-1.910967	-179.781300	-1.456583	-12.224300	 0.701004	 4.170325	 71.388240	 2.060539	 2.384658	 28.388730	 0.000004	-2.788119	 2.000571	 0.167298	-1.428481	 6.170904	-0.397864	 4.313793	-7.850472	 1.066995	-91.776180	 78.527470	 180.000000	 69.759470	 44.875690	-52.500760	-7.616849	 4.615561	-11.620070	-30.435880	-13.693040	-4.477267	-2.635965	 4.993658	 6.788941	-5.165319	 0.784187	 3.516649	-5.225038	 0.466231	 0.424329	-0.000002	-3.783157	-0.089647	 4.107482	 3.328394	-0.119403	 89.782070	 78.203920	-180.000000	-60.027730	 37.903100	 58.509140	 2.651660	 3.977936	 11.831730	 30.194960	-17.301070	 7.166160	 6.112037	 4.509576	-0.364401	 4.968462	 1.518543	-9.347576	 5.168945	 0.703820	 2.021906
 0.000125	 0.019723	 1.272428	 0.001200	 0.009149	 0.105189	-11.910410	-1.700995	 179.651200	 1.468231	-12.354360	-0.721966	-4.270288	 71.625920	-2.120518	-2.385833	 28.452760	 0.000004	 11.778540	-1.917227	-179.773000	-1.456333	-12.243910	 0.702163	 4.171275	 71.389890	 2.059628	 2.384658	 28.388730	 0.000004	-2.495389	 1.948323	 0.157035	-1.277809	 6.354350	-0.342785	 3.860659	-8.106350	 0.962614	-91.776160	 78.527450	 180.000000	 69.780320	 44.941020	-52.429360	-7.707919	 4.574366	-11.514500	-30.370080	-14.082200	-4.469108	-2.635965	 4.993658	 6.788941	-5.165319	 0.784187	 3.516649	-5.225038	 0.466231	 0.424329	-0.000002	-3.783157	-0.089647	 3.670933	 3.249221	-0.104165	 89.782120	 78.203920	 180.000000	-58.347420	 36.948180	 59.159250	 1.597056	 3.748424	 11.876920	 29.701190	-18.189260	 6.625330	 6.112037	 4.509576	-0.364401	 4.968462	 1.518543	-9.347576	 5.168945	 0.703820	 2.021906
 0.000084	 0.019735	 1.272575	 0.001113	 0.009923	 0.093278	-11.961220	-1.682272	 179.663300	 1.468789	-12.311000	-0.719356	-4.265426	 71.595670	-2.125446	-2.385833	 28.452760	 0.000004	 11.830210	-1.924526	-179.766200	-1.456092	-12.263360	 0.703313	 4.173510	 71.391330	 2.057288	 2.384658	 28.388730	 0.000004	-2.179532	 1.901067	 0.144218	-1.113849	 6.518622	-0.287836	 3.369560	-8.336790	 0.845946	-91.776190	 78.527470	-180.000000	 69.772870	 44.997580	-52.357060	-7.719104	 4.519181	-11.373190	-30.389400	-14.503170	-4.475109	-2.635965	 4.993658	 6.788941	-5.165319	 0.784187	 3.516649	-5.225038	 0.466231	 0.424329	-0.000002	-3.783157	-0.089647	 3.200864	 3.180116	-0.088889	 89.782130	 78.203900	 180.000000	-56.476450	 35.979030	 60.419570	 0.509958	 3.238356	 11.016840	 29.119360	-19.069470	 6.043092	 6.112037	 4.509576	-0.364401	 4.968462	 1.518543	-9.347576	 5.168945	 0.703820	 2.021906
